<?xml version="1.0" encoding="iso-8859-1"?>
<!-- Uploaded to: SVG Repo, www.svgrepo.com, Generator: SVG Repo Mixer Tools -->
<svg version="1.1" id="Layer_1" xmlns="http://www.w3.org/2000/svg" xmlns:xlink="http://www.w3.org/1999/xlink" 
	 viewBox="0 0 512 512" xml:space="preserve">
<circle style="fill:#E6E6E6;" cx="256" cy="255.997" r="255.997"/>
<path style="fill:#CCCCCC;" d="M264.314,511.896c-1.558,0-3.221,0.104-4.779,0.104L115.639,368.103l10.806-109.61l91.324-195.324
	l84.052,0.104l209.662,210.181c-8.83,130.493-115.428,234.078-247.168,238.338V511.896z"/>
<path style="fill:#666666;" d="M221.924,65.454l-48.623,98.285l-4.156-2.285l48.623-98.285L221.924,65.454z M301.924,63.377
	l41.559,98.805l-4.26,1.974L297.665,65.35C295.379,62.961,296.21,62.13,301.924,63.377z"/>
<g>
	<path style="fill:#4D4D4D;" d="M119.483,271.792h26.493c4.132,0,7.481,3.349,7.481,7.481v82.39c0,4.132-3.349,7.481-7.481,7.481
		h-26.493c-4.132,0-7.481-3.349-7.481-7.481v-82.39C112.002,275.141,115.351,271.792,119.483,271.792z"/>
	<path style="fill:#4D4D4D;" d="M366.133,271.792h26.493c4.132,0,7.481,3.349,7.481,7.481v82.39c0,4.132-3.349,7.481-7.481,7.481
		h-26.493c-4.132,0-7.481-3.349-7.481-7.481v-82.39C358.652,275.141,362.001,271.792,366.133,271.792z"/>
</g>
<path style="fill:#E04E5A;" d="M180.782,149.091c-14.753,6.13-37.506,59.013-37.506,59.013s-0.935,6.442-3.74,10.078
	c-2.805,3.74-11.221,10.909-14.545,12.987c-3.428,1.974-9.662,4.364-10.389,28.78c-0.727,24.416,4.051,63.792,4.051,63.792
	s1.455,5.195,9.974,6.442c8.519,1.143,45.61,1.143,45.61,1.143s0.935,1.974,2.702,1.974c52.779,0,105.455,0,158.337,0
	c1.766,0,2.702-1.974,2.702-1.974s37.195,0.104,45.61-1.143c8.519-1.143,9.974-6.442,9.974-6.442s4.779-39.273,4.052-63.792
	c-0.727-24.416-6.961-26.701-10.389-28.78c-3.428-1.974-11.74-9.247-14.545-12.987s-3.74-10.078-3.74-10.078
	s-22.753-52.884-37.506-59.013c-20.052-8.312-130.389-8.312-150.442,0H180.782z"/>
<path style="fill:#CC3D49;" d="M118.444,322.493l0.104,1.143c0,0,1.455,5.195,9.974,6.442c8.519,1.143,45.61,1.143,45.61,1.143
	s0.935,1.974,2.702,1.974c52.779,0,105.455,0,158.337,0c1.766,0,2.702-1.974,2.702-1.974s37.195,0.104,45.61-1.143
	c8.519-1.143,9.974-6.442,9.974-6.442l0.104-1.143H118.34H118.444z"/>
<g>
	<path style="fill:#EF5764;" d="M316.366,145.87c-30.13-4.051-90.494-4.051-120.623,0v0.727c0,1.662,1.351,3.013,3.013,3.013
		h114.702c1.662,0,3.013-1.351,3.013-3.013v-0.727H316.366z"/>
	<path style="fill:#EF5764;" d="M160.106,215.792c22.546,24.416,29.402,22.442,34.182,25.142c-1.351,1.455-1.558,2.598-1.558,2.598
		s-4.883,0.415-8.727-2.805c-3.844-3.325-58.494-9.974-58.494-9.974l0,0c-0.208,0.104-0.415,0.208-0.519,0.311
		c-3.428,1.974-9.662,4.364-10.389,28.78c-0.104,3.948-0.104,8.208,0,12.676l82.182,20.364h59.324h59.324l82.182-20.364
		c0.104-4.468,0.104-8.727,0-12.676c-0.727-24.416-6.961-26.701-10.389-28.78c-0.208-0.104-0.311-0.208-0.519-0.311
		c0,0-54.65,6.649-58.494,9.974c-3.844,3.325-8.727,2.805-8.727,2.805s-0.208-1.143-1.558-2.598
		c4.779-2.702,11.636-0.727,34.182-25.142c-9.559-0.104-19.117-0.208-28.78-0.312l-8.519,6.026h-58.701h-58.701l-8.519-6.026
		C179.327,215.585,169.665,215.689,160.106,215.792z"/>
</g>
<path style="fill:#CC3D49;" d="M174.237,331.117c0,0,0.935,1.974,2.702,1.974c52.779,0,105.455,0,158.337,0
	c1.766,0,2.702-1.974,2.702-1.974l-8.312-14.026c-4.052-5.922-6.753-12.468-14.857-12.468H196.47
	c-8.208,0-11.636,6.026-14.857,12.468l-7.272,14.026H174.237z"/>
<path style="fill:#4D4D4D;" d="M215.483,249.559c-2.389,0-2.909,0.312-3.636,2.598l-6.545,21.61
	c-0.415,1.351,2.181,4.156,3.636,4.156h94.234c1.351,0,3.948-2.805,3.636-4.156l-6.545-21.61c-0.727-2.285-1.247-2.598-3.636-2.598
	L215.483,249.559L215.483,249.559z"/>
<path style="fill:#999999;" d="M176.626,160.831c51.221-9.247,104.831-9.87,158.754,0l23.689,49.454
	c-69.299-3.636-138.597-3.636-207.792,0l25.455-49.454H176.626z"/>
<path style="fill:#CCCCCC;" d="M248.002,153.767c13.506-0.208,27.221,0.104,40.935,1.143l-47.896,52.779
	c-14.234,0.104-28.468,0.311-42.597,0.727L248.002,153.767z M295.899,155.429c3.221,0.311,6.442,0.623,9.559,0.935l-46.442,51.221
	c-3.532,0-6.961,0-10.493,0l47.273-52.156L295.899,155.429L295.899,155.429z"/>
<path style="fill:#E6E6E6;" d="M214.132,244.363h83.845c4.468,0,6.857,1.558,8.104,6.026l6.753,22.649
	c1.351,4.468-3.636,10.285-8.104,10.285h-97.455c-4.468,0-9.455-5.819-8.104-10.285l6.753-22.649
	c1.351-4.468,3.636-6.026,8.104-6.026H214.132z M264.002,249.663l-7.585,26.078l-7.585-26.078h-5.922l8.208,28.363h10.182
	l8.208-28.363h-5.298H264.002z M253.301,249.663l3.117,10.806l3.117-10.806L253.301,249.663L253.301,249.663z M218.911,278.026
	l-7.168-24.831l0.311-0.935c0.623-2.181,1.143-2.598,3.325-2.598l8.208,28.363h-4.572H218.911z M208.522,263.688l4.26,14.338h-3.74
	c-1.351,0-3.948-2.805-3.636-4.156l3.117-10.285V263.688z M293.405,278.026l7.168-24.831l-0.311-0.935
	c-0.623-2.181-1.143-2.598-3.325-2.598l-8.208,28.363h4.572H293.405z M303.794,263.688l-4.26,14.338h3.74
	c1.351,0,3.948-2.805,3.636-4.156l-3.117-10.285L303.794,263.688L303.794,263.688z M275.535,249.663l-8.208,28.363h4.572
	l8.208-28.363H275.535z M286.237,249.663l-8.208,28.363h4.572l8.208-28.363H286.237z M236.781,249.663l8.208,28.363h-4.572
	l-8.208-28.363H236.781z M226.081,249.663l8.208,28.363h-4.572l-8.208-28.363H226.081z"/>
<g>
	<path style="fill:#FFFFFF;" d="M168.21,242.597l-37.714-5.715c-1.766-0.312-3.532,0.831-3.844,2.805l-2.702,14.545
		c-0.312,1.87,0.832,3.844,2.598,4.156l45.818,10.078c1.766,0.415,4.364-0.935,3.844-2.805l-5.402-19.013
		c-0.519-1.87-0.727-3.948-2.598-4.156L168.21,242.597L168.21,242.597z"/>
	<path style="fill:#FFFFFF;" d="M343.898,242.597l37.714-5.715c1.766-0.312,3.532,0.831,3.844,2.805l2.702,14.545
		c0.311,1.87-0.832,3.844-2.598,4.156l-45.818,10.078c-1.766,0.415-4.364-0.935-3.844-2.805l5.402-19.013
		c0.519-1.87,0.727-3.948,2.598-4.156V242.597z"/>
</g>
<rect x="203.948" y="292.88" style="fill:#E6E6E6;" width="104.204" height="23.793"/>
<path style="fill:#CC3D49;" d="M153.769,296.311c5.922,0,10.702,4.779,10.702,10.702c0,5.922-4.779,10.702-10.702,10.702
	c-5.922,0-10.702-4.779-10.702-10.702C143.068,301.091,147.846,296.311,153.769,296.311z M358.444,296.311
	c5.922,0,10.702,4.779,10.702,10.702c0,5.922-4.779,10.702-10.702,10.702c-5.922,0-10.702-4.779-10.702-10.702
	C347.742,301.091,352.521,296.311,358.444,296.311z"/>
<path style="fill:#616161;" d="M144.314,211.636c0,0-1.87-0.311-2.494,0.104c-0.519,0.311-3.428-0.208-3.428-0.208v-9.974
	c0,0-1.455-2.805-5.402-3.117c-3.844-0.311-17.662,0.519-20.468,1.662c-2.702,1.143-4.051,4.051-3.428,7.481
	c0.623,3.428,1.247,7.065,6.234,8.935c4.883,1.87,20.468,2.702,20.468,2.702l7.272,0.831l1.351-8.312L144.314,211.636z"/>
<path style="fill:#4D4D4D;" d="M110.444,201.558c-1.247,1.455-1.766,3.636-1.351,6.026c0.623,3.428,1.247,7.065,6.234,8.936
	c4.883,1.87,20.468,2.702,20.468,2.702l7.272,0.831l0.623-3.844l-6.234-0.519l0.104-1.662l-1.766-1.247
	c0,0-18.389-1.766-22.546-4.572c-2.598-1.766-2.805-4.572-2.494-6.442L110.444,201.558z"/>
<path style="fill:#616161;" d="M367.795,211.636c0,0,1.87-0.311,2.494,0.104c0.519,0.311,3.428-0.208,3.428-0.208v-9.974
	c0,0,1.455-2.805,5.402-3.117c3.844-0.311,17.662,0.519,20.468,1.662c2.702,1.143,4.052,4.051,3.428,7.481
	c-0.623,3.428-1.247,7.065-6.234,8.935c-4.883,1.87-20.468,2.702-20.468,2.702l-7.272,0.831l-1.351-8.312L367.795,211.636z"/>
<path style="fill:#4D4D4D;" d="M401.561,201.558c1.247,1.455,1.766,3.636,1.351,6.026c-0.623,3.428-1.247,7.065-6.234,8.936
	c-4.883,1.87-20.468,2.702-20.468,2.702l-7.272,0.831l-0.623-3.844l6.234-0.519l-0.104-1.662l1.766-1.247
	c0,0,18.389-1.766,22.546-4.572c2.598-1.766,2.805-4.572,2.494-6.442L401.561,201.558z"/>
<path style="fill:#FFD630;" d="M201.977,109.298h108.051c4.763,0,8.623,3.86,8.623,8.623v20.155c0,4.763-3.86,8.623-8.623,8.623
	H201.977c-4.763,0-8.623-3.86-8.623-8.623v-20.155C193.353,113.16,197.214,109.298,201.977,109.298z"/>
<path style="fill:#808080;" d="M209.457,115.013h10.909c0.623,0,1.143,0.519,1.143,1.143v5.922c0,0.623-0.519,1.143-1.143,1.143
	h-10.909c-0.623,0-1.143-0.519-1.143-1.143v-5.922C208.314,115.532,208.834,115.013,209.457,115.013z M291.847,115.013h10.909
	c0.623,0,1.143,0.519,1.143,1.143v5.922c0,0.623-0.519,1.143-1.143,1.143h-10.909c-0.623,0-1.143-0.519-1.143-1.143v-5.922
	C290.703,115.532,291.224,115.013,291.847,115.013z M291.847,132.883h10.909c0.623,0,1.143,0.519,1.143,1.143v5.922
	c0,0.623-0.519,1.143-1.143,1.143h-10.909c-0.623,0-1.143-0.519-1.143-1.143v-5.922
	C290.703,133.402,291.224,132.883,291.847,132.883z M209.457,132.883h10.909c0.623,0,1.143,0.519,1.143,1.143v5.922
	c0,0.623-0.519,1.143-1.143,1.143h-10.909c-0.623,0-1.143-0.519-1.143-1.143v-5.922
	C208.314,133.402,208.834,132.883,209.457,132.883z"/>
<path style="fill:#F0BF2B;" d="M227.015,113.766h58.286c0.861,0,1.558,0.697,1.558,1.558v26.597c0,0.861-0.697,1.558-1.558,1.558
	h-58.286c-0.861,0-1.558-0.697-1.558-1.558v-26.597C225.457,114.464,226.155,113.766,227.015,113.766z"/>
<path style="fill:#00CC96;" d="M223.794,62.754h71.896c3.213,0,5.819,2.605,5.819,5.819v34.909c0,3.213-2.605,5.819-5.819,5.819
	h-71.896c-3.213,0-5.819-2.605-5.819-5.819v-34.91C217.977,65.358,220.581,62.754,223.794,62.754z"/>
<path style="fill:#00C583;" d="M300.886,106.078c-0.936,1.974-2.909,3.221-5.195,3.221h-72c-2.285,0-4.26-1.351-5.195-3.221H300.886
	z"/>
<path style="fill:#808080;" d="M300.782,81.351h6.026c0.832,0,1.558,0.727,1.558,1.558v3.948c0,0.832-0.727,1.558-1.558,1.558
	h-6.026V81.351z"/>
<rect x="224.521" y="69.818" style="fill:#E6E6E6;" width="76.987" height="1.351"/>
<path style="fill:#FFFFFF;" d="M224.73,70.649v2.181c0,0-1.558,0.519-1.143,2.285c0.415,1.662-0.832,6.753-0.832,6.753
	s1.766,2.181,2.598,0.832c0.935,1.247,2.598-0.832,2.598-0.832s-1.247-4.987-0.832-6.753c0.415-1.662-1.143-2.285-1.143-2.285
	v-2.181l-0.727-0.311l-0.727,0.311H224.73z"/>
</svg>