<?xml version="1.0" encoding="iso-8859-1"?>
<!-- Uploaded to: SVG Repo, www.svgrepo.com, Generator: SVG Repo Mixer Tools -->
<svg version="1.1" id="Layer_1" xmlns="http://www.w3.org/2000/svg" xmlns:xlink="http://www.w3.org/1999/xlink" 
	 viewBox="0 0 512 512" xml:space="preserve">
<path style="fill:#FCD577;" d="M272.611,117.643l-40.605-16.19L96.974,76.377l-43.711,0.532
	c-9.527,0.117-17.646,6.949-19.386,16.318L9.288,225.639c-1.74,9.368,3.383,18.66,12.235,22.19l40.605,16.189l135.032,25.076
	l43.711-0.532c9.527-0.115,17.646-6.949,19.386-16.318l24.59-132.413C286.584,130.463,281.462,121.171,272.611,117.643z"/>
<g>
	<path style="fill:#EAC36E;" d="M265.406,241.499l-60.102,0.731L70.272,217.154L14.96,195.1l-5.671,30.539
		c-1.74,9.368,3.383,18.66,12.234,22.19l40.605,16.189l135.032,25.076l43.516-0.529c9.614-0.117,17.78-7.071,19.426-16.545
		L265.406,241.499z"/>
	<path style="fill:#EAC36E;" d="M197.17,298.014c-0.541,0-1.088-0.05-1.639-0.151c-4.842-0.899-8.04-5.555-7.141-10.397
		l34.847-187.641c0.9-4.843,5.563-8.036,10.397-7.14c4.843,0.899,8.04,5.555,7.141,10.398l-34.847,187.64
		C205.131,295.014,201.383,298.014,197.17,298.014z"/>
	<path style="fill:#EAC36E;" d="M62.138,272.938c-0.541,0-1.088-0.05-1.639-0.151c-4.843-0.899-8.04-5.555-7.141-10.397
		L88.205,74.748c0.899-4.845,5.562-8.037,10.397-7.141c4.842,0.899,8.04,5.555,7.141,10.397L70.897,265.646
		C70.099,269.939,66.351,272.938,62.138,272.938z"/>
</g>
<rect x="13.152" y="304.7" style="fill:#415E72;" width="311.225" height="83.49"/>
<path style="fill:#FF6F52;" d="M338.974,388.191h-38.394V119.782c0-10.504,8.516-19.019,19.019-19.019h81.116
	c54.203,0,98.135,43.932,98.135,98.12v189.308h-47.158"/>
<g>
	<circle style="fill:#808080;" cx="111.78" cy="388.19" r="56.354"/>
	<circle style="fill:#808080;" cx="395.334" cy="388.19" r="56.354"/>
</g>
<path style="fill:#CFDCE5;" d="M456.581,242.363v-43.481c0-30.797-25.061-55.851-55.866-55.851h-57.866v99.332H456.581z"/>
<g>
	<circle style="fill:#E6E6E6;" cx="111.78" cy="388.19" r="22.504"/>
	<circle style="fill:#E6E6E6;" cx="395.334" cy="388.19" r="22.504"/>
</g>
<g>
	<path style="fill:#314A5F;" d="M111.778,417.235c-16.015,0-29.044-13.03-29.044-29.044s13.028-29.044,29.044-29.044
		s29.044,13.03,29.044,29.044S127.793,417.235,111.778,417.235z M111.778,372.228c-8.802,0-15.963,7.161-15.963,15.963
		c0,8.802,7.16,15.963,15.963,15.963s15.963-7.161,15.963-15.963C127.741,379.389,120.58,372.228,111.778,372.228z"/>
	<path style="fill:#314A5F;" d="M395.331,417.235c-16.015,0-29.045-13.03-29.045-29.044s13.03-29.044,29.045-29.044
		c16.016,0,29.044,13.03,29.044,29.044S411.347,417.235,395.331,417.235z M395.331,372.228c-8.802,0-15.964,7.161-15.964,15.963
		c0,8.802,7.161,15.963,15.964,15.963c8.803,0,15.963-7.161,15.963-15.963C411.294,379.389,404.134,372.228,395.331,372.228z"/>
</g>
<path style="fill:#FCD577;" d="M456.58,328.07c-4.927,0-8.919-3.993-8.919-8.919v-26.77c0-4.925,3.992-8.919,8.919-8.919
	s8.919,3.993,8.919,8.919v26.77C465.498,324.078,461.506,328.07,456.58,328.07z"/>
<g>
	<path style="fill:#CFDCE5;" d="M503.081,371.886h-28.015c-4.927,0-8.919-3.993-8.919-8.919c0-4.925,3.992-8.919,8.919-8.919h28.015
		c4.927,0,8.919,3.993,8.919,8.919C512,367.893,508.007,371.886,503.081,371.886z"/>
	<path style="fill:#CFDCE5;" d="M30.988,371.886H8.919c-4.927,0-8.919-3.993-8.919-8.919c0-4.925,3.992-8.919,8.919-8.919h22.069
		c4.927,0,8.919,3.993,8.919,8.919C39.907,367.893,35.914,371.886,30.988,371.886z"/>
</g>
</svg>